<svg xmlns="http://www.w3.org/2000/svg" width="192" height="192" viewBox="0 0 192 192">
  <defs>
    <linearGradient id="bg" x1="0%" y1="0%" x2="100%" y2="100%">
      <stop offset="0%" style="stop-color:#047857;stop-opacity:1" />
      <stop offset="50%" style="stop-color:#059669;stop-opacity:1" />
      <stop offset="100%" style="stop-color:#10B981;stop-opacity:1" />
    </linearGradient>
    <linearGradient id="capGrad" x1="0%" y1="0%" x2="0%" y2="100%">
      <stop offset="0%" style="stop-color:#ffffff;stop-opacity:1" />
      <stop offset="100%" style="stop-color:#f0fdf4;stop-opacity:1" />
    </linearGradient>
    <linearGradient id="tasselGrad" x1="0%" y1="0%" x2="0%" y2="100%">
      <stop offset="0%" style="stop-color:#fbbf24;stop-opacity:1" />
      <stop offset="100%" style="stop-color:#f59e0b;stop-opacity:1" />
    </linearGradient>
  </defs>
  <rect width="192" height="192" fill="url(#bg)" rx="28"/>
  <rect x="10" y="10" width="172" height="172" fill="none" stroke="#34d399" stroke-width="2" rx="24" opacity="0.3"/>
  <g>
    <polygon points="96,50 52,68 96,77 140,68" fill="url(#capGrad)"/>
    <path d="M68,76 L68,98 Q68,104 96,104 Q124,104 124,98 L124,76" fill="url(#capGrad)"/>
    <rect x="68" y="90" width="56" height="6" fill="#059669" opacity="0.8"/>
    <line x1="96" y1="68" x2="138" y2="54" stroke="#fbbf24" stroke-width="2.5"/>
    <ellipse cx="138" cy="60" rx="5" ry="10" fill="url(#tasselGrad)"/>
    <circle cx="96" cy="68" r="4" fill="#fbbf24"/>
  </g>
  <text x="96" y="140" text-anchor="middle" font-size="26" fill="white" font-family="Arial, sans-serif" font-weight="bold" letter-spacing="3">SKOOLAR</text>
</svg>
