<svg xmlns="http://www.w3.org/2000/svg" width="512" height="512" viewBox="0 0 512 512">
  <defs>
    <linearGradient id="bg" x1="0%" y1="0%" x2="100%" y2="100%">
      <stop offset="0%" style="stop-color:#047857;stop-opacity:1" />
      <stop offset="50%" style="stop-color:#059669;stop-opacity:1" />
      <stop offset="100%" style="stop-color:#10B981;stop-opacity:1" />
    </linearGradient>
    <linearGradient id="capGrad" x1="0%" y1="0%" x2="0%" y2="100%">
      <stop offset="0%" style="stop-color:#ffffff;stop-opacity:1" />
      <stop offset="100%" style="stop-color:#f0fdf4;stop-opacity:1" />
    </linearGradient>
    <linearGradient id="tasselGrad" x1="0%" y1="0%" x2="0%" y2="100%">
      <stop offset="0%" style="stop-color:#fbbf24;stop-opacity:1" />
      <stop offset="100%" style="stop-color:#f59e0b;stop-opacity:1" />
    </linearGradient>
  </defs>
  <rect width="512" height="512" fill="url(#bg)" rx="76"/>
  <rect x="26" y="26" width="460" height="460" fill="none" stroke="#34d399" stroke-width="4" rx="64" opacity="0.3"/>
  <g>
    <polygon points="256,120 140,170 256,194 372,170" fill="url(#capGrad)"/>
    <path d="M180,190 L180,250 Q180,266 256,266 Q332,266 332,250 L332,190" fill="url(#capGrad)"/>
    <rect x="180" y="230" width="152" height="16" fill="#059669" opacity="0.8"/>
    <line x1="256" y1="170" x2="368" y2="132" stroke="#fbbf24" stroke-width="6"/>
    <ellipse cx="368" cy="148" rx="12" ry="26" fill="url(#tasselGrad)"/>
    <circle cx="256" cy="170" r="10" fill="#fbbf24"/>
  </g>
  <text x="256" y="370" text-anchor="middle" font-size="70" fill="white" font-family="Arial, sans-serif" font-weight="bold" letter-spacing="8">SKOOLAR</text>
</svg>
